<svg version="1.1" id="Layer_1" xmlns:x="ns_extend;" xmlns:i="ns_ai;" xmlns:graph="ns_graphs;" xmlns="http://www.w3.org/2000/svg" xmlns:xlink="http://www.w3.org/1999/xlink" x="0px" y="0px" viewBox="0 0 225.2 53" style="enable-background:new 0 0 225.2 53;" xml:space="preserve">
 <style type="text/css">
  .st0{fill:#1D1D1B;}
 </style>
 <metadata>
  <sfw xmlns="ns_sfw;">
   <slices>
   </slices>
   <sliceSourceBounds bottomLeftOrigin="true" height="53" width="225.2" x="370.2" y="206.3">
   </sliceSourceBounds>
  </sfw>
 </metadata>
 <g>
  <path class="st0" d="M52.8,21.8c-1.3-6.9-5.2-13-11-17c-12-8.4-28.6-5.5-37,6.4l0,0c-4.1,5.9-5.7,13.1-4.3,20.2
		C1.8,38.4,6,44.6,12.2,48.7c4.3,2.8,9.3,4.3,14.5,4.3c1.6,0,3.3-0.2,4.9-0.4C45.9,50,55.4,36.2,52.8,21.8
		C52.8,21.9,52.8,21.9,52.8,21.8L52.8,21.8z M3.3,20.3c3.2-4,7.3-7.6,12.6-10.8c4.6-2.8,9.6-4.8,14.8-6c1.3-0.3,2.5-0.5,3.8-0.5
		c0.9,0,1.8,0.1,2.6,0.4c3.5,1.1,5.7,3.3,6.9,6.9c2.1,6.5,2.8,13.4,2.2,20.3c-0.4,5.1-1.6,10-3.7,14.7c-1.3,2.9-3.6,4.4-6.8,4.4
		c-2.9,0-5.9-0.5-9.4-1.6c-5.3-1.6-10.2-4.2-14.6-7.5l0,0c-3.1-2.4-6-5-8.5-8C0.1,28.8,0.2,24.3,3.3,20.3L3.3,20.3z">
  </path>
  <path class="st0" d="M82.2,24.6l-5.6-0.8c-2.8-0.4-4-1.5-4-3.6c0-2.7,2.1-4.1,6.1-4.1c4.1,0,6.6,1.8,6.9,5l0,0.3h4.8l0-0.3
		c-0.3-5.4-4.8-8.8-11.6-8.8c-6.8,0-10.9,3.1-10.9,8.3c0,4.1,2.7,6.8,7.5,7.5l6.2,0.9c3.2,0.5,4.6,1.7,4.6,4.1c0,2.9-2,4.3-6.2,4.3
		c-5.1,0-7.8-2-8.1-6.2l0-0.3H67v0.3c0.1,6.5,4.6,10,12.6,10c7.3,0,11.1-2.9,11.1-8.4C90.8,28,88.1,25.5,82.2,24.6z">
  </path>
  <path class="st0" d="M108.4,12.3c-8.4,0-13.7,5.5-13.7,14.4c0,8.9,5.2,14.5,13.7,14.5S122,35.6,122,26.7
		C122,17.8,116.8,12.3,108.4,12.3z M108.4,37.1c-6,0-8.8-3.3-8.8-10.4s2.8-10.4,8.8-10.4c6,0,8.7,3.2,8.7,10.4
		C117.1,33.8,114.4,37.1,108.4,37.1L108.4,37.1z">
  </path>
  <path class="st0" d="M140.8,24.6l-5.6-0.8c-2.8-0.4-4-1.5-4-3.6c0-2.7,2.1-4.1,6.1-4.1c4.1,0,6.6,1.8,6.9,5l0,0.3h4.8l0-0.3
		c-0.3-5.4-4.8-8.8-11.6-8.8c-6.8,0-10.9,3.1-10.9,8.3c0,4.1,2.7,6.8,7.5,7.5l6.2,0.9c3.2,0.5,4.6,1.7,4.6,4.1c0,2.9-2,4.3-6.2,4.3
		c-5.1,0-7.8-2-8.1-6.2l0-0.3h-4.5v0.3c0.1,6.5,4.6,10,12.6,10c7.3,0,11.1-2.9,11.1-8.4C149.4,28,146.8,25.5,140.8,24.6z">
  </path>
  <path class="st0" d="M220.7,31.8c-0.9,3.7-3.6,5.6-8.1,5.6c-5.6,0-8.5-3.1-8.8-9.3H225l0-0.2c0.1-0.6,0.1-1.3,0.1-1.9
		c0-8.2-5-13.5-12.8-13.5c-8.3,0-13.5,5.5-13.5,14.4c0,9.1,5,14.5,13.5,14.5c10.7,0,12.4-7.1,12.7-9.3l0-0.3h-4.5L220.7,31.8z
		 M212.5,16.2c5,0,7.7,2.7,8,8.1h-16.6C204.5,18.8,207.3,16.2,212.5,16.2z">
  </path>
  <path class="st0" d="M177.5,40c-0.2-2.2-0.3-4.4-0.3-6.6V20.7c0-5.4-4-8.4-10.9-8.4c-5,0-8.6,1.7-10.5,4.8
		c-0.8,1.3-1.2,2.8-1.3,4.3h4.8c0.1-0.7,0.3-1.5,0.6-2.2c1-2,3.2-3,6.5-3c4.3,0,6.2,1.4,6.2,4.5v3.5h-8.8c-1.4,0-2.7,0.3-4,0.7
		c-3.8,1.4-5.3,4.2-5.3,7.9c0,4.9,2.8,8.1,8.4,8.1c5.9,0,8.6-3.3,9.7-5.7c0.1,1.6,0.2,3.1,0.3,4.7l0,0.3h4.5L177.5,40z M164.8,37
		c-0.3,0-0.6,0-0.9,0c-0.8,0-5-0.1-5-4.2c0,0-0.2-4.5,4.7-4.8h9.1v1.3C172.7,29.6,172.2,36.2,164.8,37L164.8,37z">
  </path>
  <path class="st0" d="M185.3,13.2V10c0-4,3.3-7.3,7.3-7.4h6.8c0,0,0,0,0,0c0,0,0,0,0,0v3.8c0,0,0,0,0,0c0,0,0,0,0,0l-6.3,0
		c-1.8,0-3.2,1.5-3.2,3.3l0,3.3l0,0l0,0v0h8.1V17h-8.1v23.4h0c0,0,0,0,0,0h-4.4c0,0,0,0,0,0l0,0V17c-1.3,0-2.8,0.1-4.6,0.3l-0.3,0
		l0-3.5C182,13.4,183.6,13.2,185.3,13.2L185.3,13.2z">
  </path>
 </g>
</svg>